<svg xmlns="http://www.w3.org/2000/svg" viewBox="0 0 30.78 25"><title>twitter</title><path d="M27.61 6.23v.82C27.61 15.39 21.26 25 9.66 25a17.82 17.82 0 0 1-9.69-2.83 13.07 13.07 0 0 0 1.52.08 12.63 12.63 0 0 0 7.83-2.7 6.32 6.32 0 0 1-5.9-4.37 7.79 7.79 0 0 0 1.19.1 6.67 6.67 0 0 0 1.66-.21 6.31 6.31 0 0 1-5.06-6.19V8.8a6.35 6.35 0 0 0 2.85.8 6.32 6.32 0 0 1-2-8.44 17.93 17.93 0 0 0 13 6.6 7.17 7.17 0 0 1-.16-1.45 6.31 6.31 0 0 1 10.92-4.32 12.41 12.41 0 0 0 4-1.52 6.29 6.29 0 0 1-2.77 3.48 12.64 12.64 0 0 0 3.63-1 13.55 13.55 0 0 1-3.07 3.28z"/></svg>
