<svg xmlns="http://www.w3.org/2000/svg" viewBox="0 0 35 25"><title>yt</title><path d="M34.37 20.98a4.43 4.43 0 0 1-3.77 3.54 117.21 117.21 0 0 1-13.11.49 117.21 117.21 0 0 1-13.11-.49 4.48 4.48 0 0 1-3.79-3.54 39.64 39.64 0 0 1-.61-8.48 38.4 38.4 0 0 1 .63-8.48A4.46 4.46 0 0 1 4.38.48a117.21 117.21 0 0 1 13.11-.49A117.21 117.21 0 0 1 30.6.48a4.48 4.48 0 0 1 3.79 3.54A39.64 39.64 0 0 1 35 12.5a38.4 38.4 0 0 1-.63 8.48zm-10-9.53l-10-6.25a1.23 1.23 0 0 0-1.27 0 1.26 1.26 0 0 0-.64 1.09v12.5a1.26 1.26 0 0 0 .64 1.09 1.32 1.32 0 0 0 .61.16 1.15 1.15 0 0 0 .66-.2l10-6.25a1.24 1.24 0 0 0 .04-2.14z"/></svg>
